<svg xmlns="http://www.w3.org/2000/svg" width="256" height="256" viewBox="0 0 100 100"><rect width="100" height="100" rx="20" fill="#000000"></rect><path d="M17.87 83.13L17.87 16.77L44.14 16.77L44.14 83.13L17.87 83.13ZM52.25 46.51L52.25 34.84Q52.25 24.05 57.71 20.34L57.71 20.34Q62.89 16.87 77.20 16.87L77.20 16.87L82.13 16.87L82.13 26.10Q82.13 37.13 76.51 41.82L76.51 41.82Q70.80 46.51 56.84 46.51L56.84 46.51L52.25 46.51ZM52.25 63.79L52.25 51.59L56.84 51.59Q70.61 51.59 76.51 57.06L76.51 57.06Q82.13 62.28 82.13 73.56L82.13 73.56L82.13 83.23L77.20 83.23Q63.18 83.23 57.71 79.03L57.71 79.03Q52.25 74.78 52.25 63.79L52.25 63.79Z" fill="#fff"></path></svg>